<?xml version="1.0" encoding="UTF-8" standalone="no"?>
<!-- Created with Inkscape (http://www.inkscape.org/) -->

<svg
   version="1.1"
   id="svg1"
   width="31.999998"
   height="34.972687"
   viewBox="0 0 31.999999 34.972687"
   sodipodi:docname="istockphoto-1466294460-612x612.jpg"
   xmlns:inkscape="http://www.inkscape.org/namespaces/inkscape"
   xmlns:sodipodi="http://sodipodi.sourceforge.net/DTD/sodipodi-0.dtd"
   xmlns="http://www.w3.org/2000/svg"
   xmlns:svg="http://www.w3.org/2000/svg">
  <defs
     id="defs1" />
  <sodipodi:namedview
     id="namedview1"
     pagecolor="#ffffff"
     bordercolor="#000000"
     borderopacity="0.25"
     inkscape:showpageshadow="2"
     inkscape:pageopacity="0.0"
     inkscape:pagecheckerboard="0"
     inkscape:deskcolor="#d1d1d1" />
  <g
     inkscape:groupmode="layer"
     inkscape:label="Image"
     id="g1"
     transform="translate(-25.113275,195.93451)">
    <path
       id="path1"
       style="fill:#000000;stroke-width:0.239838"
       d="m 37.756324,-195.93415 c -1.332437,0.0145 -2.637721,0.89859 -2.974557,2.39417 l -0.0862,0.38364 -1.567849,0.0384 c -1.820808,0.0446 -2.015505,0.10027 -2.383863,0.68111 -0.213165,0.33612 -0.220103,0.3774 -0.219696,1.34862 2.36e-4,0.55104 0.03421,1.12301 0.07541,1.27133 0.213083,0.76698 0.968559,1.57153 1.689642,1.79973 0.28684,0.0908 1.236154,0.107 5.602476,0.0946 l 5.257238,-0.015 0.390676,-0.20611 c 0.214931,-0.11341 0.56833,-0.40037 0.785094,-0.63754 0.526275,-0.57582 0.704538,-1.13746 0.704058,-2.21522 -4.96e-4,-0.90566 -0.08067,-1.256 -0.363974,-1.59268 -0.39311,-0.46718 -0.649574,-0.52507 -2.332335,-0.52699 l -1.506952,-0.002 -0.04872,-0.3265 c -0.07453,-0.49695 -0.362408,-1.04713 -0.79587,-1.521 -0.615693,-0.67311 -1.425132,-0.97745 -2.224595,-0.96873 z m 0.07026,1.7154 c 0.244551,0.0137 0.487764,0.0821 0.669393,0.20237 0.342836,0.22688 0.624594,0.74049 0.62208,1.13361 -0.0026,0.40674 -0.25585,0.88128 -0.586947,1.09942 -0.557767,0.36747 -1.241623,0.30708 -1.72056,-0.15178 -0.618819,-0.59285 -0.438558,-1.74768 0.336804,-2.15666 0.188539,-0.0994 0.434678,-0.14066 0.67923,-0.12696 z m -8.087519,2.93288 -1.819868,0.0243 -1.819868,0.0239 -0.31104,0.20611 c -0.170985,0.11324 -0.392618,0.33775 -0.492793,0.49888 l -0.182221,0.29277 v 14.12705 14.12751 l 0.215949,0.3265 c 0.149577,0.22604 0.338511,0.38321 0.614117,0.51153 l 0.3977,0.1855 h 11.359066 c 7.773176,2.2e-4 11.45116,-0.0253 11.651836,-0.0811 0.161279,-0.0448 0.428826,-0.20359 0.594443,-0.35321 0.486787,-0.43979 0.532142,-0.70844 0.532142,-3.14554 v -2.0953 l -0.172853,-0.0351 c -0.09498,-0.0192 -0.418468,-0.0542 -0.719045,-0.0778 -1.067425,-0.0837 -2.369995,-0.57296 -3.444399,-1.29428 -0.596665,-0.40057 -1.614964,-1.4366 -1.957119,-1.99085 l -0.268413,-0.43516 -4.489944,-0.005 c -4.198988,-0.005 -4.510301,-0.0147 -4.802857,-0.14756 -0.637132,-0.28938 -0.756125,-1.11849 -0.230001,-1.60064 l 0.27216,-0.24921 4.049615,-0.0108 c 2.227274,-0.005 4.112545,-0.01 4.189208,-0.01 0.127014,8.5e-4 0.133437,-0.0439 0.07635,-0.50732 -0.08142,-0.66079 -0.0798,-1.99157 0.0028,-2.60027 l 0.06511,-0.47968 h -4.180308 c -4.122659,0 -4.182649,-0.002 -4.383609,-0.16021 -0.616584,-0.485 -0.549175,-1.38569 0.127882,-1.70697 0.242721,-0.1152 0.724738,-0.12788 4.753672,-0.12788 h 4.482919 l 0.390672,-0.55651 c 0.945961,-1.34857 2.26837,-2.34289 3.820551,-2.87243 0.595148,-0.20304 1.661927,-0.40848 2.120604,-0.40848 h 0.296987 v -3.97232 c 0,-2.34436 -0.03042,-4.07915 -0.07449,-4.23277 -0.123449,-0.43045 -0.402542,-0.76636 -0.803832,-0.96779 -0.370082,-0.18577 -0.422788,-0.19065 -2.081723,-0.19065 h -1.701354 l -0.03607,0.80383 c -0.03258,0.73246 -0.06022,0.85369 -0.31432,1.36782 -0.479222,0.96965 -1.43281,1.6917 -2.501439,1.89435 -0.57731,0.10948 -9.810407,0.10539 -10.412828,-0.004 -1.084323,-0.19804 -2.058199,-0.93124 -2.508466,-1.88825 -0.219514,-0.46656 -0.249129,-0.61247 -0.275439,-1.35284 z m 0.738721,7.24105 c 0.859239,-0.0713 1.504142,0.55559 1.504142,1.46152 0,0.49864 -0.264854,0.95916 -0.688599,1.19732 -0.99526,0.55936 -2.15105,-0.1155 -2.15105,-1.25634 0,-0.74837 0.562064,-1.33836 1.335507,-1.4025 z m 9.707365,0.44408 c 5.315966,2.8e-4 5.50443,0.005 5.742067,0.1499 0.6503,0.39651 0.617827,1.34236 -0.05856,1.7051 -0.246213,0.13204 -0.575208,0.13987 -5.634795,0.13818 -4.855112,-0.001 -5.398647,-0.0139 -5.632924,-0.12928 -0.66619,-0.32819 -0.726992,-1.22332 -0.115702,-1.70417 0.202324,-0.15903 0.242113,-0.15998 5.699909,-0.15973 z m 10.250281,2.62464 c -4.474234,0.005 -7.729765,4.51124 -6.249851,8.8623 0.747642,2.19815 2.624989,3.85954 4.926523,4.35926 0.65515,0.14224 2.073554,0.14393 2.742216,0.003 2.435174,-0.51225 4.383582,-2.33768 5.086261,-4.76444 0.152487,-0.52664 0.175837,-0.77615 0.172384,-1.83721 -0.0037,-1.13016 -0.02103,-1.27989 -0.217824,-1.88029 -0.894312,-2.72855 -3.214621,-4.55067 -6.023129,-4.72932 -0.146748,-0.01 -0.292251,-0.0138 -0.43658,-0.0135 z m 0.07541,1.85313 c 0.143951,0 0.263791,0.01 0.359757,0.0304 0.09597,0.0138 0.171415,0.0379 0.226254,0.0721 0.0617,0.0274 0.10608,0.0649 0.133504,0.11289 0.02742,0.0411 0.04123,0.0894 0.04123,0.14428 v 3.74278 h 3.383034 c 0.05484,0 0.102677,0.0133 0.143809,0.0408 0.04798,0.0274 0.0894,0.0723 0.123666,0.13397 0.04113,0.0617 0.06827,0.14059 0.08197,0.23656 0.02056,0.0892 0.03091,0.19516 0.03091,0.31854 0,0.13024 -0.01035,0.24318 -0.03091,0.33914 -0.02057,0.0891 -0.0477,0.16457 -0.08197,0.22625 -0.03427,0.0617 -0.07568,0.10656 -0.123666,0.13398 -0.04799,0.0274 -0.09927,0.0412 -0.154115,0.0412 h -3.372728 v 3.74232 c 0,0.0548 -0.0138,0.10314 -0.04123,0.14427 -0.02742,0.0342 -0.07181,0.0649 -0.133504,0.0923 -0.05484,0.0274 -0.130285,0.0515 -0.226254,0.0721 -0.09597,0.0136 -0.215806,0.0206 -0.359757,0.0206 -0.137096,0 -0.256934,-0.006 -0.359758,-0.0206 -0.09597,-0.0206 -0.174866,-0.0447 -0.23656,-0.0721 -0.05484,-0.0274 -0.09625,-0.058 -0.123665,-0.0923 -0.02742,-0.0411 -0.04076,-0.0894 -0.04076,-0.14427 v -3.74232 h -3.372728 c -0.0617,0 -0.116436,-0.0138 -0.16442,-0.0412 -0.04113,-0.0274 -0.07908,-0.0723 -0.113362,-0.13398 -0.03427,-0.0616 -0.06141,-0.13714 -0.08197,-0.22625 -0.02057,-0.096 -0.03091,-0.2089 -0.03091,-0.33914 0,-0.12338 0.01035,-0.22942 0.03091,-0.31854 0.02057,-0.096 0.0477,-0.17486 0.08197,-0.23656 0.03427,-0.0617 0.07223,-0.10656 0.113362,-0.13397 0.04798,-0.0274 0.09927,-0.0408 0.154115,-0.0408 h 3.383033 v -3.74278 c 0,-0.0548 0.01333,-0.10315 0.04076,-0.14428 0.02741,-0.048 0.06883,-0.0854 0.123665,-0.11289 0.0617,-0.0342 0.140593,-0.0585 0.23656,-0.0721 0.102827,-0.0206 0.222662,-0.0304 0.359758,-0.0304 z m -19.901433,0.62067 c 0.209819,0.009 0.425594,0.0681 0.643628,0.17754 0.930434,0.46727 0.992782,1.86515 0.109145,2.44991 -0.340495,0.22533 -0.97005,0.31211 -1.287726,0.17753 -1.033829,-0.43797 -1.266992,-1.71222 -0.445481,-2.43351 0.297858,-0.26153 0.630732,-0.38617 0.980434,-0.37147 z m -0.02295,5.57999 c 0.222044,7.4e-4 0.440322,0.0468 0.626765,0.14193 1.026332,0.52361 1.022782,2.04387 -0.0061,2.57593 -0.267175,0.13815 -0.951629,0.1394 -1.258683,0.002 -0.286018,-0.12766 -0.616343,-0.47434 -0.724199,-0.7598 -0.192215,-0.50873 -0.02652,-1.25969 0.354136,-1.60391 0.257875,-0.23321 0.637997,-0.35772 1.00807,-0.35648 z m -0.05902,5.51488 c 0.520304,0 1.077747,0.33006 1.302717,0.77104 0.331882,0.65054 0.101227,1.54368 -0.494198,1.91168 -0.488954,0.30219 -1.16535,0.26769 -1.669033,-0.0848 -0.532451,-0.37261 -0.679755,-1.36342 -0.288556,-1.94165 0.204312,-0.302 0.824464,-0.65628 1.14907,-0.65628 z m 9.728445,0.46047 h 5.441334 l 0.260918,0.17519 c 0.167671,0.11264 0.300843,0.29077 0.373342,0.49888 0.09918,0.2847 0.09918,0.36269 0,0.64738 -0.0725,0.20811 -0.205671,0.38625 -0.373342,0.49888 l -0.260918,0.1752 h -5.456792 c -5.276914,-2.8e-4 -5.465121,-0.005 -5.70272,-0.15037 -0.469466,-0.28625 -0.618161,-0.89415 -0.333057,-1.36174 0.307504,-0.50432 0.04581,-0.48342 6.051235,-0.48342 z"
       inkscape:export-filename="..\React\merg\admin\src\assets\add_Item.svg"
       inkscape:export-xdpi="96"
       inkscape:export-ydpi="96" />
  </g>
</svg>
