<?xml version="1.0" encoding="UTF-8" standalone="no"?>
<!-- Created with Inkscape (http://www.inkscape.org/) -->

<svg
   version="1.1"
   id="svg1"
   width="40.000031"
   height="39.96257"
   viewBox="0 0 40.000031 39.96257"
   sodipodi:docname="logout.jpg"
   xmlns:inkscape="http://www.inkscape.org/namespaces/inkscape"
   xmlns:sodipodi="http://sodipodi.sourceforge.net/DTD/sodipodi-0.dtd"
   xmlns="http://www.w3.org/2000/svg"
   xmlns:svg="http://www.w3.org/2000/svg">
  <defs
     id="defs1" />
  <sodipodi:namedview
     id="namedview1"
     pagecolor="#ffffff"
     bordercolor="#000000"
     borderopacity="0.25"
     inkscape:showpageshadow="2"
     inkscape:pageopacity="0.0"
     inkscape:pagecheckerboard="0"
     inkscape:deskcolor="#d1d1d1" />
  <g
     inkscape:groupmode="layer"
     inkscape:label="Image"
     id="g1"
     transform="translate(-338.01855,260.54849)">
    <path
       style="fill:#000000;stroke-width:0.111336"
       d="m 355.20813,-220.70284 c -0.52049,-0.0819 -1.29706,-0.23114 -1.7257,-0.33155 -0.42864,-0.10041 -1.18016,-0.3141 -1.67004,-0.47486 -0.48987,-0.16077 -1.32374,-0.47922 -1.85303,-0.70767 -0.52929,-0.22845 -1.43111,-0.69261 -2.00404,-1.03147 -0.57293,-0.33886 -1.39631,-0.8835 -1.82972,-1.21032 -0.43342,-0.32682 -1.10344,-0.86977 -1.48895,-1.20656 -0.3855,-0.33679 -1.09769,-1.06326 -1.58266,-1.61437 -0.48496,-0.55111 -1.17728,-1.43214 -1.53849,-1.95784 -0.36121,-0.5257 -0.93054,-1.47762 -1.26518,-2.11538 -0.33464,-0.63776 -0.78832,-1.64548 -1.00817,-2.23939 -0.21986,-0.5939 -0.52097,-1.57087 -0.66913,-2.17104 -0.14817,-0.60017 -0.3338,-1.54213 -0.41252,-2.09324 -0.0787,-0.55111 -0.14259,-1.75354 -0.14193,-2.67206 6.7e-4,-0.91852 0.0662,-2.14599 0.14561,-2.72772 0.0794,-0.58173 0.28692,-1.6088 0.46109,-2.28238 0.17418,-0.67358 0.44693,-1.57061 0.60612,-1.9934 0.15919,-0.42279 0.56465,-1.31798 0.90102,-1.98931 0.33637,-0.67133 0.81795,-1.52784 1.07017,-1.90335 0.25222,-0.37551 0.79576,-1.10874 1.20785,-1.6294 0.41209,-0.52066 1.19309,-1.37332 1.73554,-1.8948 0.54246,-0.52147 1.28689,-1.17656 1.6543,-1.45574 0.36741,-0.27918 0.97893,-0.71699 1.35895,-0.97291 0.38001,-0.25592 1.23173,-0.73682 1.8927,-1.06867 0.66098,-0.33185 1.48929,-0.71063 1.8407,-0.84174 0.35141,-0.1311 1.15138,-0.38485 1.77771,-0.56387 0.62633,-0.17902 1.66649,-0.40846 2.31147,-0.50985 0.74582,-0.11724 1.86165,-0.18521 3.06539,-0.18671 1.47368,-0.002 2.21315,0.0534 3.34007,0.24959 0.79605,0.13858 2.04858,0.44784 2.7834,0.68726 0.73481,0.23941 1.93724,0.73329 2.67205,1.09752 0.73482,0.36423 1.79612,0.97774 2.35845,1.36336 0.56234,0.38562 1.42804,1.04882 1.92378,1.47379 0.49575,0.42497 1.24238,1.15144 1.65917,1.61437 0.4168,0.46293 1.06103,1.25179 1.43164,1.75301 0.3706,0.50123 0.92652,1.35294 1.23536,1.89271 0.30885,0.53976 0.73254,1.3822 0.94153,1.87207 0.209,0.48988 0.51174,1.2915 0.67277,1.78137 0.16103,0.48988 0.38997,1.31655 0.50876,1.83704 0.11879,0.5205 0.27711,1.43909 0.35182,2.04133 0.0854,0.68803 0.11379,1.80522 0.0765,3.00606 -0.0403,1.29764 -0.1366,2.29988 -0.30006,3.12227 -0.1324,0.66614 -0.41285,1.74331 -0.62323,2.39371 -0.21038,0.6504 -0.73433,1.88396 -1.16434,2.74125 -0.43001,0.85728 -1.11866,2.03466 -1.53032,2.61639 -0.42286,0.59755 -1.40277,1.71197 -2.25245,2.56166 -0.84969,0.84968 -1.96411,1.82958 -2.56166,2.25245 -0.58173,0.41166 -1.75911,1.09966 -2.61639,1.52889 -0.85729,0.42922 -2.02719,0.93459 -2.59979,1.12304 -0.57261,0.18845 -1.62473,0.46852 -2.33805,0.62238 -1.08678,0.23441 -1.66684,0.2865 -3.57934,0.32141 -1.55395,0.0284 -2.58441,-0.006 -3.22874,-0.10733 z m 5.32824,-8.31971 c 0.51177,-0.12538 1.27404,-0.36963 1.69395,-0.54279 0.4199,-0.17315 1.12846,-0.54996 1.57457,-0.83734 0.44611,-0.28738 1.11795,-0.79067 1.49297,-1.11842 0.37502,-0.32775 0.96095,-0.96044 1.30206,-1.40596 0.34112,-0.44553 0.84553,-1.26368 1.12092,-1.81812 0.27539,-0.55444 0.60119,-1.37067 0.724,-1.81384 0.12281,-0.44317 0.28,-1.29356 0.34931,-1.88974 0.0928,-0.79808 0.0936,-1.37681 0.003,-2.19425 -0.0676,-0.61065 -0.25212,-1.53527 -0.41004,-2.05473 -0.15792,-0.51945 -0.43864,-1.24591 -0.62384,-1.61436 -0.18519,-0.36845 -0.5182,-0.94497 -0.74002,-1.28114 -0.22182,-0.33617 -0.72175,-0.9491 -1.11095,-1.36206 -0.3892,-0.41296 -1.04451,-1.00057 -1.45624,-1.3058 -0.41173,-0.30523 -1.13595,-0.73892 -1.60937,-0.96374 -0.79932,-0.37959 -0.89166,-0.39953 -1.29335,-0.27918 -0.23792,0.0713 -0.53546,0.26041 -0.66122,0.42028 -0.14323,0.18208 -0.22864,0.45542 -0.22864,0.73166 0,0.24254 0.0847,0.58437 0.18822,0.75961 0.10352,0.17525 0.33686,0.38021 0.51854,0.45546 0.18167,0.0753 0.6884,0.37058 1.12606,0.65629 0.43766,0.28571 1.06327,0.78699 1.39024,1.11396 0.32697,0.32698 0.80384,0.92306 1.0597,1.32464 0.25586,0.40158 0.56996,0.98065 0.698,1.28682 0.12804,0.30617 0.32028,0.88233 0.42719,1.28036 0.12751,0.47469 0.19379,1.1259 0.19266,1.89271 -0.001,0.7257 -0.0746,1.46457 -0.19376,1.94837 -0.10562,0.42864 -0.41234,1.23102 -0.68161,1.78306 -0.33286,0.68242 -0.72642,1.26322 -1.22947,1.81441 -0.40695,0.44587 -1.02179,1.00181 -1.36632,1.23542 -0.34453,0.2336 -0.87693,0.55133 -1.1831,0.70607 -0.30617,0.15473 -0.82719,0.36159 -1.15781,0.45969 -0.33062,0.0981 -1.02326,0.2308 -1.5392,0.29492 -0.66994,0.0833 -1.19822,0.0811 -1.84825,-0.007 -0.5006,-0.0682 -1.30605,-0.2546 -1.78987,-0.41416 -0.48383,-0.15956 -1.2389,-0.52461 -1.67794,-0.81122 -0.43904,-0.2866 -1.05697,-0.77577 -1.37319,-1.08703 -0.31621,-0.31126 -0.8234,-0.94653 -1.12707,-1.41171 -0.30367,-0.46519 -0.65264,-1.11441 -0.77548,-1.44273 -0.12284,-0.32832 -0.30769,-1.0132 -0.41078,-1.52196 -0.13523,-0.66743 -0.17019,-1.22073 -0.12554,-1.98686 0.0354,-0.60703 0.16568,-1.39564 0.30421,-1.84118 0.13327,-0.42864 0.4154,-1.11081 0.62695,-1.51593 0.21155,-0.40512 0.62115,-1.03017 0.91023,-1.389 0.28908,-0.35883 0.81919,-0.88894 1.17802,-1.17802 0.35883,-0.28907 0.99992,-0.70821 1.42466,-0.9314 0.48796,-0.25641 0.85118,-0.53526 0.98667,-0.75746 0.11794,-0.19341 0.21461,-0.49423 0.21484,-0.66848 2.3e-4,-0.17426 -0.0855,-0.46232 -0.19056,-0.64013 -0.11417,-0.19327 -0.37917,-0.39517 -0.65889,-0.502 -0.3787,-0.14462 -0.54123,-0.1545 -0.85239,-0.0518 -0.21145,0.0698 -0.72909,0.33265 -1.1503,0.58414 -0.42122,0.25149 -1.10699,0.7338 -1.52393,1.07179 -0.41695,0.33799 -1.07897,1.01558 -1.47116,1.50575 -0.39218,0.49018 -0.88807,1.22426 -1.10196,1.6313 -0.21389,0.40704 -0.5378,1.18779 -0.7198,1.73499 -0.18199,0.54721 -0.39161,1.41701 -0.46582,1.9329 -0.0792,0.55046 -0.10914,1.42652 -0.0725,2.12048 0.0343,0.65038 0.14452,1.49952 0.24493,1.88698 0.1004,0.38747 0.32633,1.06645 0.50208,1.50886 0.17574,0.4424 0.55745,1.19626 0.84825,1.67524 0.29079,0.47898 0.85751,1.21941 1.25936,1.6454 0.40186,0.42599 1.01018,0.98962 1.35184,1.25252 0.34165,0.26289 0.94991,0.65868 1.35168,0.87952 0.40177,0.22084 1.12472,0.54452 1.60656,0.71929 0.48183,0.17476 1.22676,0.37413 1.65541,0.44303 0.42864,0.0689 0.9046,0.14636 1.05768,0.17214 0.15309,0.0258 0.77935,0.0228 1.3917,-0.007 0.61235,-0.0294 1.53207,-0.15606 2.04384,-0.28143 z m -3.93654,-0.54039 c -0.30617,-0.0465 -0.88234,-0.16846 -1.28036,-0.27111 -0.39803,-0.10266 -1.17459,-0.40561 -1.7257,-0.67323 -0.55112,-0.26762 -1.40346,-0.80974 -1.8941,-1.20471 -0.49064,-0.39497 -1.18241,-1.08252 -1.53725,-1.5279 -0.35484,-0.44538 -0.88994,-1.31561 -1.18911,-1.93386 -0.29917,-0.61824 -0.62544,-1.42469 -0.72504,-1.79209 -0.10825,-0.39931 -0.204,-1.3174 -0.23803,-2.28239 -0.0522,-1.48122 -0.0332,-1.70619 0.23096,-2.72772 0.15833,-0.61235 0.5131,-1.56427 0.78838,-2.11538 0.27527,-0.55111 0.79425,-1.35554 1.15328,-1.78761 0.35903,-0.43208 0.93013,-1.02253 1.2691,-1.31213 0.33898,-0.28959 1.03018,-0.77527 1.536,-1.07928 0.50583,-0.30401 1.02692,-0.55275 1.15799,-0.55275 0.13106,0 0.29842,0.0601 0.3719,0.13361 0.0735,0.0735 0.1336,0.24107 0.1336,0.37242 0,0.13135 -0.0877,0.31411 -0.19483,0.40615 -0.10716,0.092 -0.28239,0.19838 -0.38939,0.23632 -0.107,0.0379 -0.48183,0.25276 -0.83295,0.47737 -0.35112,0.22461 -0.87929,0.6115 -1.17371,0.85976 -0.29442,0.24825 -0.80384,0.80509 -1.13205,1.23742 -0.3282,0.43233 -0.78065,1.15501 -1.00543,1.60597 -0.22479,0.45095 -0.51009,1.20246 -0.63402,1.67003 -0.1592,0.60062 -0.23002,1.24223 -0.24132,2.18615 -0.0117,0.97966 0.0397,1.55875 0.19286,2.17104 0.11488,0.45926 0.34519,1.13955 0.51182,1.51175 0.16663,0.3722 0.49069,0.9702 0.72014,1.32889 0.22945,0.35869 0.69926,0.94789 1.04403,1.30935 0.34477,0.36145 0.85297,0.82277 1.12934,1.02515 0.27636,0.20238 0.91051,0.57337 1.4092,0.82443 0.49869,0.25106 1.35041,0.5622 1.89271,0.69142 0.82213,0.19591 1.21727,0.22598 2.37768,0.18098 0.76544,-0.0297 1.69231,-0.13538 2.05971,-0.23489 0.36741,-0.0995 1.11893,-0.40318 1.67004,-0.67483 0.55111,-0.27165 1.33361,-0.77069 1.73889,-1.10898 0.40528,-0.33828 1.01392,-0.97997 1.35252,-1.42597 0.33861,-0.446 0.76635,-1.11328 0.95053,-1.48285 0.18419,-0.36956 0.45232,-1.04593 0.59586,-1.50303 0.22759,-0.72478 0.26057,-1.05184 0.25788,-2.55679 -0.003,-1.656 -0.0178,-1.76843 -0.36763,-2.7834 -0.20049,-0.58172 -0.57391,-1.40552 -0.82982,-1.83065 -0.25591,-0.42513 -0.73409,-1.06329 -1.06261,-1.41814 -0.32853,-0.35485 -0.9053,-0.87669 -1.28173,-1.15965 -0.37642,-0.28296 -0.96651,-0.65688 -1.31131,-0.83094 -0.3448,-0.17405 -0.6594,-0.40113 -0.69911,-0.50462 -0.0397,-0.10349 0.005,-0.30636 0.0999,-0.45081 0.0947,-0.14446 0.25862,-0.26202 0.36437,-0.26125 0.10575,7.8e-4 0.57889,0.2137 1.05144,0.47318 0.47254,0.25947 1.2147,0.76901 1.64924,1.13231 0.43455,0.36331 1.08769,1.0555 1.45143,1.53822 0.36374,0.48272 0.85863,1.2877 1.09975,1.78884 0.24113,0.50114 0.54377,1.31198 0.67254,1.80185 0.12878,0.48988 0.26283,1.3917 0.29789,2.00405 0.0446,0.77916 0.0103,1.41912 -0.1143,2.13204 -0.0979,0.56027 -0.33268,1.446 -0.52167,1.96828 -0.19019,0.52563 -0.63535,1.39246 -0.99704,1.94148 -0.38485,0.58417 -1.01539,1.33109 -1.534,1.81713 -0.4843,0.45388 -1.27651,1.05766 -1.76045,1.34171 -0.48394,0.28405 -1.24753,0.6478 -1.69686,0.80832 -0.44933,0.16052 -1.24499,0.3665 -1.76812,0.45773 -0.52313,0.0912 -1.30782,0.15961 -1.74375,0.15197 -0.43593,-0.008 -1.04311,-0.0519 -1.34928,-0.0984 z m 2.07401,-8.18965 c 0.1875,-0.097 0.40751,-0.34255 0.49548,-0.5531 0.13043,-0.31215 0.15823,-1.48545 0.15823,-6.67632 0,-5.19088 -0.0278,-6.36418 -0.15823,-6.67633 -0.088,-0.21055 -0.30798,-0.45614 -0.49548,-0.5531 -0.18549,-0.0959 -0.5201,-0.1744 -0.74359,-0.1744 -0.31366,0 -0.49267,0.0863 -0.78488,0.37854 -0.37854,0.37854 -0.37854,0.37854 -0.37854,7.02529 0,6.64674 0,6.64674 0.37854,7.02528 0.29221,0.2922 0.47122,0.37854 0.78488,0.37854 0.22349,0 0.5581,-0.0785 0.74359,-0.1744 z m -1.06814,-0.71005 c -0.0357,-0.0578 -0.065,-2.9975 -0.0651,-6.53264 -1.1e-4,-5.08959 0.0294,-6.4463 0.14188,-6.51767 0.0781,-0.0496 0.24473,-0.0909 0.37026,-0.0918 0.12553,-8.9e-4 0.28836,0.0584 0.36184,0.13189 0.1008,0.1008 0.1336,1.69478 0.1336,6.49088 0,4.79609 -0.0328,6.39007 -0.1336,6.49087 -0.0735,0.0735 -0.27093,0.1336 -0.43877,0.1336 -0.16784,0 -0.3344,-0.0473 -0.37013,-0.1051 z"
       id="path1"
       inkscape:export-filename="..\..\..\..\vd-delivery-app\admin\src\assets\logout.svg"
       inkscape:export-xdpi="10.69"
       inkscape:export-ydpi="10.69" />
  </g>
</svg>
