<?xml version="1.0" encoding="UTF-8" standalone="no"?>
<!-- Created with Inkscape (http://www.inkscape.org/) -->

<svg
   version="1.1"
   id="svg1"
   width="406.88281"
   height="406.88284"
   viewBox="0 0 406.88281 406.88284"
   sodipodi:docname="rabish.jpg"
   xmlns:inkscape="http://www.inkscape.org/namespaces/inkscape"
   xmlns:sodipodi="http://sodipodi.sourceforge.net/DTD/sodipodi-0.dtd"
   xmlns="http://www.w3.org/2000/svg"
   xmlns:svg="http://www.w3.org/2000/svg">
  <defs
     id="defs1" />
  <sodipodi:namedview
     id="namedview1"
     pagecolor="#ffffff"
     bordercolor="#000000"
     borderopacity="0.25"
     inkscape:showpageshadow="2"
     inkscape:pageopacity="0.0"
     inkscape:pagecheckerboard="0"
     inkscape:deskcolor="#d1d1d1" />
  <g
     inkscape:groupmode="layer"
     inkscape:label="Image"
     id="g1"
     transform="translate(674.30194,298.08957)">
    <path
       id="path1"
       style="fill:#000000"
       d="m -470.86054,-298.08956 a 203.4413,203.4413 0 0 0 -203.44141,203.441409 203.4413,203.4413 0 0 0 203.44141,203.441411 203.4413,203.4413 0 0 0 203.4414,-203.441411 203.4413,203.4413 0 0 0 -203.4414,-203.441409 z m -83.61133,55.71094 c 19.55573,0.25974 37.03879,8.39864 51.85937,24.40625 5.4444,5.88043 14.64068,19.31849 15.99024,23.36719 0.19189,0.57567 4.02441,-0.56847 8.77344,-2.61914 10.47267,-4.52219 9.94777,-7.34104 5.49218,29.46679 -1.95709,16.16771 -3.55859,30.15478 -3.55859,31.08399 0,2.89963 -1.71553,2.20249 -43,-17.46094 -5.77499,-2.75058 -12.6375,-5.92066 -15.25,-7.04687 -6.07589,-2.61925 -6.12078,-2.50654 3.01172,-7.7168 12.15137,-6.93257 11.72663,-6.16569 7.76953,-14.02344 -17.49844,-34.74725 -52.90721,-47.35309 -94.50977,-33.64844 -9.52203,3.13674 -9.58961,2.90549 -0.86914,-2.94531 23.10809,-15.50384 44.73529,-23.12302 64.29102,-22.86328 z m 121.89453,18.66406 c 5.91151,-0.6153 12.0058,7.23128 25.7207,29.73242 8.21309,13.4747 15.32506,25.1227 15.80469,25.88672 0.70413,1.12163 1.71542,0.81282 5.25391,-1.61132 2.41031,-1.65125 6.40781,-4.03053 8.88281,-5.28711 2.475,-1.25659 4.5427,-2.33052 4.5957,-2.38672 0.92256,-0.97842 8.11827,9.11842 17.21875,24.16211 5.1984,8.59327 4.60011,10.02952 -7.47461,17.93164 -6.15983,4.03122 -6.15948,4.02975 8.84375,28.91601 21.23957,35.23066 22.12235,37.70299 15.67578,43.88477 -4.08099,3.91337 -10.46768,3.81044 -15.54492,-0.25 -2.11703,-1.69306 -14.82136,-22.079891 -52.80664,-84.74805 -10.00119,-16.49998 -21.83118,-35.94538 -26.28906,-43.21289 -11.17236,-18.21387 -12.42188,-24.41346 -6.00781,-29.81055 2.20544,-1.85575 4.15645,-3.00193 6.12695,-3.20703 z m 6.10742,99.625 c 40.17769,0.46481 32.97866,4.48635 29.5918,28.962893 -1.6471,11.903438 -3.68443,27.612857 -4.52735,34.908207 -0.84292,7.29535 -3.9757,31.59538 -6.96093,54.0000004 -2.98525,22.4046196 -5.73577,43.4343696 -6.11328,46.7343696 -0.87135,7.61694 -1.79984,9.33753 -5.98438,11.08594 -5.05826,2.11353 -120.02637,2.10059 -123.04492,-0.01367 -3.48077,-2.43803 -5.23163,-8.43018 -7.91406,-27.07227 -1.42453,-9.89999 -4.16137,-27.6750096 -6.08203,-39.5 -1.92066,-11.82499 -5.5003,-34.77501 -7.95508,-51 -2.45478,-16.224981 -5.29574,-34.45 -6.3125,-40.5 -3.28817,-19.56563 -13.74078,-17.47292 87.43554,-17.51172 25.81637,-0.01 44.47463,-0.24868 57.86719,-0.0937 z m -7.02148,25.105471 c -8.78735,0 -8.45227,-1.731841 -12.40625,63.999999 -3.64818,60.64794 -3.63715,54.53473 -0.0937,58.07813 5.52199,5.522 14.24036,2.5823 15.47851,-5.21875 0.29319,-1.84725 1.24654,-16.8593996 2.11914,-33.35938 0.8726,-16.49998 2.22411,-40.24024 3.00391,-52.75781 1.70941,-27.439802 0.83996,-30.742189 -8.10156,-30.742189 z m -99.31446,0.05469 c -5.70739,-0.419118 -8.88431,7.537107 -8.03515,21.945312 0.40519,6.874989 1.01944,18.125009 1.36523,24.999999 3.32976,66.201 4.0348,73.60752 7.29492,76.62891 4.40942,4.08651 12.10922,2.57546 14.3418,-2.81446 2.61073,-6.30285 -5.20276,-114.665591 -8.4707,-117.476558 -2.40907,-2.072191 -4.59363,-3.143497 -6.4961,-3.283203 z m 49.77149,1.023437 c -2.0725,-0.01913 -4.17827,0.579317 -5.88086,1.886719 -2.5,1.919728 -2.50003,1.920543 -3.22656,57.728515 -0.77225,59.31974 -0.76199,59.58916 2.47461,63.05664 3.07509,3.29445 9.57959,3.12706 12.82812,-0.33008 2.73115,-2.90653 4.46559,-111.283351 1.88086,-117.523434 -1.25907,-3.039666 -4.62201,-4.786479 -8.07617,-4.81836 z" />
  </g>
</svg>
