<?xml version="1.0" encoding="UTF-8" standalone="no"?>
<!-- Created with Inkscape (http://www.inkscape.org/) -->

<svg
   width="13.822412mm"
   height="7.3917971mm"
   viewBox="0 0 13.822412 7.3917971"
   version="1.1"
   id="svg1"
   xmlns:inkscape="http://www.inkscape.org/namespaces/inkscape"
   xmlns:sodipodi="http://sodipodi.sourceforge.net/DTD/sodipodi-0.dtd"
   xmlns="http://www.w3.org/2000/svg"
   xmlns:svg="http://www.w3.org/2000/svg">
  <sodipodi:namedview
     id="namedview1"
     pagecolor="#ffffff"
     bordercolor="#000000"
     borderopacity="0.25"
     inkscape:showpageshadow="2"
     inkscape:pageopacity="0.0"
     inkscape:pagecheckerboard="0"
     inkscape:deskcolor="#d1d1d1"
     inkscape:document-units="mm" />
  <defs
     id="defs1" />
  <g
     inkscape:label="Warstwa 1"
     inkscape:groupmode="layer"
     id="layer1"
     transform="translate(-94.391138,-77.214384)">
    <path
       d="m 381.87891,317.12296 q -0.60938,-0.25781 -1.17188,-0.5625 -2.0625,-1.03125 -5.57812,-1.03125 -2.03907,0 -6.79688,0.79688 -4.75781,0.77343 -6.49219,2.39062 -1.19531,1.05469 -2.50781,1.05469 -0.72656,0 -1.61719,-0.42188 -0.91406,-0.42187 -0.96093,-1.14843 1.10156,-1.21875 3.04687,-3.1875 10.57031,-10.73438 16.07813,-17.8125 -0.0937,-0.21094 -0.75,-0.21094 -1.24219,0 -5.29688,0.58594 -1.82812,0.28125 -3.79687,0.28125 -4.80469,0 -4.80469,-2.53125 0,-1.92188 2.13281,-1.92188 0.11719,0 0.44531,0.11719 1.6875,0.70312 4.07813,0.70312 3.16406,0 7.14844,-0.51562 0.39843,-0.0703 0.9375,-0.14063 0.51562,-0.0469 1.19531,-0.1875 1.35937,-0.23437 2.15625,-0.23437 0.79687,0 1.61719,0.42187 0.84375,0.42188 0.72656,1.35938 l -0.0234,0.0937 q -0.51562,2.03906 -12.39844,14.71875 -2.85937,3.07031 -3.07031,3.63281 0.0937,0.23438 0.46875,0.23438 0.32813,0 3.28125,-0.63282 5.53125,-1.19531 8.39063,-1.19531 4.47656,0 4.47656,2.71875 0,1.71094 -0.91406,2.625 z m 20.01562,-8.27344 q -3.28125,4.40625 -6.49219,6.60938 -3.21093,2.20312 -5.88281,2.20312 -1.80469,0 -3.11719,-1.52343 -1.3125,-1.52344 -1.3125,-3.91407 0,-6.16406 5.50782,-13.26562 5.50781,-7.125 10.94531,-7.125 1.96875,0 2.92969,2.25 0.30468,0.75 0.96093,0.75 1.875,0 1.875,1.45312 0,0.72657 -0.23437,1.99219 -1.26563,6.91406 -1.26563,9.75 0,5.67188 2.15625,6.79688 1.03125,0.5625 1.03125,1.38281 0,0.72656 -1.00781,1.45312 -1.00781,0.75 -1.94531,0.75 -1.80469,0 -2.97656,-2.48437 -1.17188,-2.48438 -1.17188,-7.07813 z m -1.42969,-13.19531 q -3.09375,0 -7.19531,5.8125 -4.10156,5.78906 -4.10156,9.60938 0,2.69531 1.78125,2.69531 2.57812,0 7.14844,-5.20313 4.57031,-5.20312 4.57031,-9.5625 0,-3.35156 -2.20313,-3.35156 z"
       id="text1"
       style="font-size:48px;line-height:0.9;font-family:'Segoe Print';-inkscape-font-specification:'Segoe Print';text-align:center;text-anchor:middle;white-space:pre;fill:#ffffff"
       transform="scale(0.26458333)"
       aria-label="za"
       inkscape:export-filename="za.svg"
       inkscape:export-xdpi="96"
       inkscape:export-ydpi="96" />
  </g>
</svg>
