<?xml version="1.0" encoding="UTF-8" standalone="no"?>
<!-- Created with Inkscape (http://www.inkscape.org/) -->

<svg
   version="1.1"
   id="svg1"
   width="39.999992"
   height="34.011658"
   viewBox="0 0 39.999992 34.011658"
   sodipodi:docname="procent.jpg"
   xmlns:inkscape="http://www.inkscape.org/namespaces/inkscape"
   xmlns:sodipodi="http://sodipodi.sourceforge.net/DTD/sodipodi-0.dtd"
   xmlns="http://www.w3.org/2000/svg"
   xmlns:svg="http://www.w3.org/2000/svg">
  <defs
     id="defs1" />
  <sodipodi:namedview
     id="namedview1"
     pagecolor="#ffffff"
     bordercolor="#000000"
     borderopacity="0.25"
     inkscape:showpageshadow="2"
     inkscape:pageopacity="0.0"
     inkscape:pagecheckerboard="0"
     inkscape:deskcolor="#d1d1d1" />
  <g
     inkscape:groupmode="layer"
     inkscape:label="Image"
     id="g1"
     transform="translate(-106.88386,371.51447)">
    <path
       style="fill:#000000;stroke-width:0.112627"
       d="m 115.43213,-337.63797 c -0.28006,-0.28006 -0.0997,-0.75849 1.17693,-3.1227 2.40784,-4.45901 5.00912,-9.27758 6.17577,-11.43994 0.63499,-1.17695 2.53651,-4.69935 4.22559,-7.82756 1.68907,-3.1282 3.75235,-6.95414 4.58505,-8.50207 0.83271,-1.54793 1.57343,-2.85222 1.64606,-2.89841 0.0726,-0.0462 1.25351,-0.0848 2.62419,-0.0857 2.68002,-0.002 2.77696,0.0188 2.77011,0.58991 -0.002,0.13919 -0.25605,0.70921 -0.56529,1.26671 -0.30925,0.5575 -2.60209,4.78945 -5.0952,9.40433 -2.49312,4.61488 -4.69777,8.69479 -4.89924,9.06645 -0.20147,0.37167 -1.01191,1.86679 -1.80098,3.32249 -0.78907,1.4557 -2.32223,4.2939 -3.40701,6.3071 -1.08479,2.0132 -2.0489,3.74906 -2.14247,3.85747 -0.15247,0.17665 -0.42878,0.19709 -2.66424,0.19709 -1.7897,0 -2.53229,-0.0382 -2.62927,-0.13515 z m 5.24564,-2.53973 c 0.43217,-0.7898 1.6338,-3.00714 2.67028,-4.92742 1.03648,-1.92029 2.58426,-4.78382 3.43951,-6.36341 7.57064,-13.98246 10.13375,-18.72971 10.13375,-18.76914 0,-0.0253 -0.67115,-0.0319 -1.49144,-0.0146 l -1.49144,0.0314 -1.6948,3.15354 c -0.93215,1.73446 -2.62561,4.87674 -3.76325,6.98286 -1.13764,2.10612 -2.56062,4.74159 -3.16218,5.85659 -0.60155,1.11501 -2.47575,4.58673 -4.16489,7.71493 -1.68914,3.12821 -3.32223,6.15646 -3.62908,6.72945 l -0.55793,1.0418 h 1.46285 1.46284 z m 15.51147,2.55715 c -2.78333,-0.4364 -5.04447,-1.99296 -6.13365,-4.22236 -0.74402,-1.52292 -0.9422,-2.42526 -0.95145,-4.33217 -0.008,-1.75007 0.13109,-2.53717 0.68674,-3.87252 1.38289,-3.32343 4.62164,-5.11563 8.81136,-4.87587 4.17726,0.23904 7.01378,2.4039 8.02489,6.12465 0.3423,1.25963 0.3423,3.87523 0,5.13486 -0.8089,2.97666 -2.86468,5.03012 -5.83054,5.82398 -1.02685,0.27485 -3.50203,0.39273 -4.60735,0.21943 z m 4.27212,-1.45708 c 2.90881,-0.74394 4.74008,-2.9082 5.12257,-6.05403 0.306,-2.51663 -0.42513,-4.94523 -1.95457,-6.49259 -0.8015,-0.8109 -1.91469,-1.43351 -3.18278,-1.78014 -1.23927,-0.33876 -3.64975,-0.33804 -4.90573,10e-4 -2.45372,0.66329 -3.99281,2.06664 -4.75426,4.33495 -0.43445,1.2942 -0.57162,2.57472 -0.41358,3.86073 0.14606,1.18851 0.62428,2.61746 1.15031,3.43722 0.40626,0.63309 1.38145,1.55826 2.05816,1.95258 0.62246,0.3627 1.99387,0.81371 2.89375,0.95164 1.01144,0.15504 2.95568,0.0517 3.98613,-0.21183 z m -3.3646,-2.07795 c -0.65646,-0.24379 -0.97885,-0.52081 -1.38216,-1.18765 -0.55153,-0.91189 -0.76607,-2.02191 -0.7515,-3.88816 0.0285,-3.64678 1.10599,-5.29183 3.33505,-5.09166 1.58972,0.14275 2.45936,1.47023 2.67157,4.07802 0.17392,2.1372 -0.17179,4.12988 -0.90014,5.18851 -0.58071,0.84402 -1.98231,1.26879 -2.97282,0.90094 z m 1.76361,-1.45204 c 0.52637,-0.48783 0.78799,-1.43443 0.84952,-3.07375 0.11507,-3.06543 -0.5084,-4.53674 -1.86398,-4.39882 -1.1993,0.12202 -1.6627,1.39152 -1.57572,4.31671 0.0769,2.58607 0.49539,3.41771 1.71982,3.41771 0.4591,0 0.64968,-0.0573 0.87036,-0.26185 z m -24.91491,-11.64196 c -2.92207,-0.4912 -5.21852,-2.19975 -6.24972,-4.64978 -1.02108,-2.42597 -1.07967,-4.96167 -0.17212,-7.44842 0.87054,-2.38535 2.73777,-4.08946 5.29865,-4.83576 1.155,-0.33659 3.82548,-0.43259 5.13811,-0.1847 1.13323,0.21401 2.4957,0.74517 3.27565,1.27701 0.82595,0.56321 1.96439,1.80504 2.42818,2.64869 1.55342,2.82576 1.44037,7.00381 -0.25974,9.59947 -1.22155,1.86499 -3.06221,3.06534 -5.3862,3.51248 -0.7636,0.14692 -3.37207,0.1988 -4.07281,0.081 z m 4.44875,-1.4441 c 2.48831,-0.68221 4.27495,-2.52239 4.86449,-5.01025 0.26664,-1.12523 0.25993,-3.36604 -0.0132,-4.39244 -0.66428,-2.49673 -2.37738,-4.21254 -4.90764,-4.91543 -0.57369,-0.15937 -1.13413,-0.20245 -2.59042,-0.19912 -1.70509,0.004 -1.93264,0.029 -2.75935,0.30399 -3.13456,1.04274 -4.8115,3.50707 -4.80636,7.0631 0.006,3.89486 2.03481,6.50606 5.65106,7.27194 0.96799,0.20502 3.6285,0.13398 4.56138,-0.12179 z m -3.72134,-2.18102 c -0.71664,-0.32553 -1.25952,-1.06573 -1.58468,-2.16066 -0.37706,-1.26969 -0.40081,-4.08902 -0.0455,-5.397 0.36884,-1.35766 1.1435,-2.23386 2.18008,-2.46583 1.06644,-0.23866 2.12732,0.14325 2.70219,0.97279 0.68524,0.9888 1.06189,3.03173 0.91777,4.97786 -0.1683,2.27262 -0.82203,3.62025 -1.99355,4.10962 -0.56825,0.23737 -1.61161,0.21974 -2.17634,-0.0368 z m 1.71888,-1.14572 c 0.42957,-0.14975 0.86282,-0.92079 1.04618,-1.86183 0.19833,-1.01785 0.0947,-3.76911 -0.17076,-4.53363 -0.3093,-0.89079 -0.69823,-1.25726 -1.33432,-1.25726 -0.74966,0 -1.04928,0.18299 -1.36709,0.83495 -0.38003,0.77956 -0.50768,1.55199 -0.50768,3.07197 0,2.96867 0.81417,4.2755 2.33367,3.7458 z"
       id="path1" />
  </g>
</svg>
