<?xml version="1.0" encoding="UTF-8" standalone="no"?>
<!-- Created with Inkscape (http://www.inkscape.org/) -->

<svg
   version="1.1"
   id="svg1"
   width="39.999893"
   height="32.871407"
   viewBox="0 0 39.999893 32.871407"
   sodipodi:docname="sadcat.jpg"
   xmlns:inkscape="http://www.inkscape.org/namespaces/inkscape"
   xmlns:sodipodi="http://sodipodi.sourceforge.net/DTD/sodipodi-0.dtd"
   xmlns="http://www.w3.org/2000/svg"
   xmlns:svg="http://www.w3.org/2000/svg">
  <defs
     id="defs1" />
  <sodipodi:namedview
     id="namedview1"
     pagecolor="#ffffff"
     bordercolor="#000000"
     borderopacity="0.25"
     inkscape:showpageshadow="2"
     inkscape:pageopacity="0.0"
     inkscape:pagecheckerboard="0"
     inkscape:deskcolor="#d1d1d1" />
  <g
     inkscape:groupmode="layer"
     inkscape:label="Image"
     id="g1"
     transform="translate(-203.14291,-73.147568)">
    <path
       style="fill:#000000;stroke-width:0.0843893"
       d="m 218.86373,105.92724 c -4.96821,-0.49261 -8.37968,-1.8098 -10.76987,-4.1583 -1.19158,-1.1708 -2.04602,-2.484426 -2.54936,-3.919436 -0.12618,-0.35971 -0.26415,-0.65402 -0.30661,-0.65402 -0.0425,0 -0.32515,0.0623 -0.62821,0.13841 -0.53269,0.13381 -0.55851,0.13283 -0.77684,-0.0294 -0.51361,-0.38173 -0.24038,-0.95626 0.51505,-1.08302 0.74804,-0.12551 0.72237,-0.0816 0.59829,-1.02275 -0.0602,-0.45663 -0.11083,-1.04636 -0.1125,-1.3105 -0.002,-0.26414 -0.0378,-0.50173 -0.0802,-0.52797 -0.0425,-0.0262 -0.31778,-0.0716 -0.61182,-0.1008 -0.74191,-0.0737 -0.99875,-0.23461 -0.99875,-0.62586 0,-0.25945 0.0418,-0.32804 0.27426,-0.45035 0.22562,-0.11869 0.36647,-0.13119 0.79415,-0.0705 l 0.51988,0.0738 0.0497,-0.24871 c 0.0274,-0.1368 0.0502,-0.55727 0.0506,-0.93438 0.002,-1.35029 0.34397,-4.03723 0.80738,-6.33975 1.12987,-5.61389 3.2266,-10.4168 4.93037,-11.29382 1.42929,-0.73573 3.10767,0.35239 5.08761,3.29838 0.7271,1.08186 1.58137,2.55952 2.24399,3.88146 l 0.43357,0.865 4.87272,-0.006 4.87271,-0.006 0.3947,-0.81722 c 1.87565,-3.88346 4.2838,-6.93535 5.8062,-7.3583 0.42815,-0.11895 1.05908,-0.10232 1.39175,0.0367 2.11932,0.88551 4.81215,7.98824 5.64942,14.90115 0.12112,1.00004 0.29977,3.21929 0.30157,3.74625 l 8.5e-4,0.24409 0.50246,-0.0525 c 0.6848,-0.0716 1.01524,0.1049 1.01601,0.54262 4.2e-4,0.25803 -0.0403,0.32348 -0.27373,0.43958 -0.15085,0.075 -0.49258,0.15968 -0.75942,0.18812 -0.56588,0.0603 -0.51512,-0.0564 -0.64504,1.48364 -0.0494,0.58536 -0.11269,1.12398 -0.14069,1.19695 -0.0407,0.106 0.0529,0.15309 0.46574,0.23431 0.63738,0.12539 0.93173,0.3387 0.93173,0.67518 0,0.26821 -0.25602,0.5846 -0.47306,0.5846 -0.0745,0 -0.36354,-0.0591 -0.64225,-0.13131 -0.27872,-0.0722 -0.51494,-0.1197 -0.52495,-0.10549 -0.01,0.0142 -0.10515,0.27266 -0.21145,0.57436 -1.24873,3.544106 -4.40872,6.042446 -9.22918,7.296746 -1.20228,0.31284 -3.19661,0.66295 -4.61552,0.81027 -1.45024,0.15058 -6.76243,0.17271 -8.1613,0.034 z m 7.95032,-1.18178 c 5.82023,-0.55484 9.64014,-2.23159 11.87977,-5.214616 0.53269,-0.70951 1.34082,-2.51797 1.17185,-2.6224 -0.0313,-0.0194 -0.2,-0.062 -0.37484,-0.0948 -0.52668,-0.0988 -0.75958,-0.68345 -0.4014,-1.0076 0.13542,-0.12255 0.24911,-0.13935 0.6251,-0.0924 0.45369,0.0567 0.46019,0.0544 0.50792,-0.17974 0.039,-0.19122 0.22047,-1.86166 0.22047,-2.02916 0,-0.0243 -0.18503,-0.0196 -0.41119,0.0104 -0.50856,0.0675 -0.6576,0.0135 -0.81774,-0.29619 -0.11143,-0.21547 -0.11124,-0.27078 0.002,-0.48908 0.126,-0.24366 0.17627,-0.2649 0.91082,-0.38492 l 0.31646,-0.0517 v -0.69993 c 0,-2.12313 -0.54107,-5.78471 -1.29982,-8.79629 -0.98666,-3.91623 -2.58249,-7.50973 -3.70078,-8.33346 -0.53381,-0.3932 -1.1628,-0.14135 -2.17671,0.87158 -1.1015,1.10042 -2.36833,3.02244 -3.63179,5.51008 l -0.58943,1.16053 -0.16631,1.37115 c -0.0915,0.75413 -0.18621,1.52468 -0.21053,1.71232 -0.081,0.62467 -0.60107,0.98404 -1.20298,0.83124 -0.5152,-0.1308 -0.61382,-0.36716 -0.80388,-1.92674 l -0.17032,-1.39759 h -0.98937 c -1.1659,0 -1.006,-0.23052 -1.25849,1.81436 -0.19128,1.54911 -0.26833,1.83907 -0.53908,2.02871 -0.20313,0.14228 -0.83342,0.16365 -1.07133,0.0363 -0.29613,-0.15849 -0.39653,-0.53083 -0.59729,-2.21522 l -0.19894,-1.66918 -0.96962,0.0236 -0.96961,0.0236 -0.18195,1.43109 c -0.17796,1.39967 -0.18774,1.43626 -0.44563,1.66669 -0.38765,0.34636 -0.85877,0.32984 -1.23179,-0.0432 -0.22953,-0.22953 -0.28924,-0.36744 -0.33799,-0.7806 -0.0326,-0.27601 -0.12865,-1.06131 -0.21352,-1.74512 l -0.1543,-1.2433 -0.60751,-1.1618 c -1.66687,-3.18774 -3.16501,-5.28553 -4.36824,-6.11667 -0.84429,-0.58321 -1.28467,-0.47853 -1.99666,0.47462 -2.1575,2.88823 -4.30002,10.73739 -4.37261,16.01909 l -0.0165,1.20395 0.29536,0.0241 c 0.70861,0.0579 0.99888,0.36451 0.79779,0.84275 -0.12046,0.28648 -0.31193,0.36673 -0.79756,0.33429 l -0.29513,-0.0197 0.0256,0.54853 c 0.0141,0.30169 0.0612,0.77638 0.10462,1.05486 0.0435,0.27849 0.0793,0.53715 0.0796,0.5748 3.5e-4,0.0377 0.17159,0.0428 0.38054,0.0115 0.94468,-0.14167 1.13812,0.89097 0.21082,1.12542 -0.35297,0.0892 -0.35182,0.12213 0.0378,1.0857 0.61515,1.52145 2.07811,3.265686 3.55501,4.238526 2.40853,1.58649 5.61523,2.47348 9.80439,2.71192 1.65585,0.0942 4.9715,0.0292 6.64529,-0.13035 z m -6.67059,-7.588336 c -0.24345,-0.24345 -0.25963,-0.45843 -0.0653,-0.86794 0.31998,-0.6743 1.19475,-1.37139 1.9679,-1.56818 l 0.46414,-0.11814 0.0244,-0.63191 0.0244,-0.63191 -0.36197,-0.13926 c -0.78012,-0.30013 -1.59189,-1.28568 -1.46743,-1.78157 0.12484,-0.49741 1.01923,-0.80509 2.34026,-0.80509 1.88261,0 2.70023,0.4234 2.42544,1.25601 -0.13372,0.40519 -0.89664,1.13709 -1.37619,1.32023 l -0.3853,0.14714 v 0.62411 c 0,0.42769 0.0332,0.63314 0.10549,0.65284 1.12846,0.30741 1.71113,0.66988 2.18994,1.36233 0.41255,0.59662 0.39106,1.22185 -0.0459,1.33613 -0.33199,0.0868 -0.53796,-0.0377 -0.77114,-0.46611 -0.24561,-0.45125 -0.71736,-0.84687 -1.19966,-1.00605 -0.17681,-0.0583 -0.60165,-0.0841 -1.04109,-0.0631 -0.6408,0.0306 -0.79821,0.0699 -1.15035,0.28661 -0.27189,0.16735 -0.49241,0.39596 -0.66114,0.68539 -0.22814,0.39136 -0.49227,0.61559 -0.72511,0.61559 -0.0463,0 -0.17747,-0.0932 -0.29139,-0.20714 z m -4.31022,-4.97745 c -1.02699,-0.44697 -1.10294,-2.36442 -0.11392,-2.87586 0.41138,-0.21273 0.87816,-0.162 1.21277,0.13179 0.79399,0.69713 0.69163,2.18382 -0.18424,2.67609 -0.38552,0.21667 -0.54562,0.22857 -0.91461,0.068 z m 13.67042,-0.0892 c -0.85423,-0.51212 -0.93601,-1.96433 -0.14952,-2.65488 0.36105,-0.317 0.92335,-0.35625 1.29656,-0.0905 0.78626,0.55987 0.85488,1.97017 0.12696,2.6093 -0.1642,0.14417 -0.34469,0.26525 -0.4011,0.26906 -0.0564,0.004 -0.19749,0.0225 -0.31352,0.0414 -0.126,0.0206 -0.3513,-0.0496 -0.55938,-0.1744 z m -18.67725,-10.59285 c -0.16019,-0.0377 -0.34057,-0.13602 -0.40085,-0.21846 -0.38388,-0.52498 0.29368,-2.96561 0.97126,-3.49859 0.37055,-0.29148 0.67428,-0.21713 1.14232,0.27964 0.68376,0.72573 1.3484,2.30746 1.20675,2.87185 -0.11441,0.45584 -1.90892,0.80347 -2.91948,0.56556 z m 22.82443,-0.047 c -0.32422,-0.0643 -0.68498,-0.18959 -0.8017,-0.27831 -0.18257,-0.13878 -0.20909,-0.21843 -0.18978,-0.57002 0.0646,-1.17657 1.19763,-2.98511 1.87008,-2.98511 0.51855,0 1.01047,0.68888 1.35686,1.90017 0.19103,0.66798 0.22108,1.53985 0.0606,1.75927 -0.22453,0.30707 -1.23848,0.38391 -2.29609,0.174 z"
       id="path1"
       inkscape:export-filename="components\NetworkErrorText\sad_cat.svg"
       inkscape:export-xdpi="96"
       inkscape:export-ydpi="96" />
  </g>
</svg>
