<?xml version="1.0" encoding="UTF-8" standalone="no"?>
<!-- Created with Inkscape (http://www.inkscape.org/) -->

<svg
   version="1.1"
   id="svg1"
   width="30"
   height="30.019327"
   viewBox="0 0 30 30.019328"
   sodipodi:docname="search_icon.png"
   xmlns:inkscape="http://www.inkscape.org/namespaces/inkscape"
   xmlns:sodipodi="http://sodipodi.sourceforge.net/DTD/sodipodi-0.dtd"
   xmlns="http://www.w3.org/2000/svg"
   xmlns:svg="http://www.w3.org/2000/svg">
  <defs
     id="defs1" />
  <sodipodi:namedview
     id="namedview1"
     pagecolor="#ffffff"
     bordercolor="#000000"
     borderopacity="0.25"
     inkscape:showpageshadow="2"
     inkscape:pageopacity="0.0"
     inkscape:pagecheckerboard="0"
     inkscape:deskcolor="#d1d1d1" />
  <g
     inkscape:groupmode="layer"
     inkscape:label="Image"
     id="g1"
     transform="translate(-1.0389941,33.609916)">
    <path
       style="fill:#000000;stroke-width:1.09769"
       d="m 27.196196,-3.717087 c -0.183409,-0.077069 -0.410875,-0.196239 -0.50548,-0.264818 -0.09461,-0.068583 -1.471176,-1.4312246 -3.059045,-3.0281023 -2.243264,-2.2559881 -2.918791,-2.9696372 -3.029443,-3.2004047 -0.200097,-0.417307 -0.234179,-1.12328 -0.07666,-1.587855 l 0.114831,-0.338671 -0.481521,-0.479019 c -0.264837,-0.263461 -0.505292,-0.47902 -0.534343,-0.47902 -0.02906,0 -0.189058,0.102722 -0.355568,0.228272 -2.211664,1.66761 -5.319323,2.479982 -8.122836,2.123387 -2.6226841,-0.333595 -4.9095405,-1.445816 -6.7434011,-3.279676 -2.8638405,-2.863841 -3.98663476,-6.895918 -3.0287171,-10.876453 0.6871522,-2.855398 2.5253132,-5.393322 5.0506068,-6.973305 3.6280584,-2.269943 8.3101214,-2.319005 11.9628384,-0.125356 4.744683,2.849433 6.798004,8.650124 4.893772,13.825041 -0.358191,0.973412 -0.92925,2.037192 -1.499861,2.793962 -0.125549,0.16651 -0.228271,0.326516 -0.228271,0.355568 0,0.02906 0.215558,0.269506 0.479019,0.534343 l 0.47902,0.481521 0.33867,-0.114831 c 0.258818,-0.08776 0.451157,-0.109033 0.815753,-0.09024 0.8441,0.04351 0.776969,-0.01098 4.119934,3.344253 3.384903,3.3973265 3.252807,3.2281312 3.252807,4.1663627 0,0.798632 -0.135734,1.0479573 -1.090065,2.0022885 -0.91742,0.9174193 -1.199128,1.0776783 -1.94282,1.1052456 -0.392096,0.014533 -0.534382,-0.00703 -0.80922,-0.1224942 z m -13.269277,-9.172735 c 3.271381,-0.520705 6.065667,-2.735306 7.26697,-5.759411 0.813134,-2.046947 0.879754,-4.382236 0.184348,-6.462134 -1.00426,-3.003657 -3.487795,-5.316377 -6.543146,-6.093116 -1.060587,-0.269626 -2.591222,-0.357561 -3.607915,-0.207275 -4.1743949,0.617053 -7.3749433,3.817563 -7.9909581,7.990861 -0.095028,0.643785 -0.083734,2.03888 0.021732,2.684234 0.5077918,3.10723 2.3354692,5.598565 5.1452275,7.013536 0.5902097,0.297225 1.7636886,0.675242 2.4975316,0.80454 0.812195,0.143102 2.22359,0.156517 3.02621,0.02876 z m -3.188562,-2.586728 c -2.0529255,-0.4438 -3.7261395,-1.807567 -4.5750762,-3.728952 -0.7456215,-1.687553 -0.7074405,-3.616199 0.1045151,-5.279413 l 0.2894634,-0.592938 0.00526,0.446013 c 0.00648,0.549386 0.1443765,1.489973 0.3037171,2.071537 0.4025193,1.469122 1.1727477,2.746774 2.3058386,3.824915 0.944482,0.89868 2.157824,1.592741 3.401304,1.94563 0.849672,0.241129 1.373843,0.311809 2.31723,0.31246 l 0.800788,5.53e-4 -0.295306,0.184538 c -0.48988,0.306126 -1.140766,0.582888 -1.745212,0.74208 -0.810268,0.213398 -2.113449,0.24632 -2.912517,0.07358 z"
       id="path1" />
  </g>
</svg>
