<?xml version="1.0" encoding="UTF-8" standalone="no"?>
<!-- Created with Inkscape (http://www.inkscape.org/) -->

<svg
   version="1.1"
   id="svg1"
   width="40"
   height="39.999996"
   viewBox="0 0 40 39.999996"
   sodipodi:docname="login.png"
   xmlns:inkscape="http://www.inkscape.org/namespaces/inkscape"
   xmlns:sodipodi="http://sodipodi.sourceforge.net/DTD/sodipodi-0.dtd"
   xmlns="http://www.w3.org/2000/svg"
   xmlns:svg="http://www.w3.org/2000/svg">
  <defs
     id="defs1" />
  <sodipodi:namedview
     id="namedview1"
     pagecolor="#ffffff"
     bordercolor="#000000"
     borderopacity="0.25"
     inkscape:showpageshadow="2"
     inkscape:pageopacity="0.0"
     inkscape:pagecheckerboard="0"
     inkscape:deskcolor="#d1d1d1" />
  <g
     inkscape:groupmode="layer"
     inkscape:label="Image"
     id="g1"
     transform="translate(-574.65637,-1.8301154)">
    <path
       style="fill:#000000;stroke-width:0.0843882"
       d="m 592.46228,41.763853 c 0,-0.03644 -0.37026,-0.115606 -0.82279,-0.175917 -0.45253,-0.06031 -1.3219,-0.237215 -1.93192,-0.393121 -6.85596,-1.752194 -12.30107,-7.025679 -14.25162,-13.802396 -0.30941,-1.074991 -0.6308,-2.693638 -0.6308,-3.17698 0,-0.168898 -0.0345,-0.264271 -0.0844,-0.233426 -0.0554,0.03426 -0.0844,-0.702358 -0.0844,-2.146918 0,-1.20949 0.0303,-2.199073 0.0673,-2.199073 0.037,0 0.11239,-0.356822 0.16747,-0.792936 0.12596,-0.99733 0.58938,-2.816994 0.9939,-3.9027 2.0594,-5.52728 6.35431,-9.8221881 11.88159,-11.8815905 1.07499,-0.4005282 2.82957,-0.8474598 3.87285,-0.9865025 0.45253,-0.060311 0.82279,-0.1394733 0.82279,-0.1759166 0,-0.036443 0.98734,-0.066261 2.19409,-0.066261 1.40647,0 2.19409,0.030293 2.19409,0.084388 0,0.046414 0.12985,0.084388 0.28854,0.084388 0.1587,0 0.7568,0.093373 1.32912,0.2074952 5.32301,1.0614363 9.7863,4.0354733 12.80795,8.5343664 1.60611,2.391334 2.78519,5.424393 3.13812,8.072483 0.0603,0.452532 0.13947,0.822785 0.17592,0.822785 0.0364,0 0.0663,0.987342 0.0663,2.194093 0,1.206751 -0.0298,2.194093 -0.0663,2.194093 -0.0364,0 -0.1156,0.370253 -0.17592,0.822784 -0.0603,0.452532 -0.23721,1.321897 -0.39312,1.931923 -1.81015,7.082732 -7.36719,12.637181 -14.42799,14.421275 -0.60338,0.152459 -1.4673,0.326743 -1.91983,0.3873 -0.45254,0.06056 -0.82279,0.13992 -0.82279,0.176363 0,0.03644 -0.98734,0.06626 -2.19409,0.06626 -1.20675,0 -2.19409,-0.02982 -2.19409,-0.06626 z m -6.51,-9.683336 c 0.31793,-0.267522 0.40712,-0.558327 0.465,-1.516225 0.15919,-2.634251 1.87314,-5.157238 4.35723,-6.41398 1.97854,-1.000973 4.55991,-1.167153 6.71815,-0.432495 1.98596,0.676011 3.67973,2.143354 4.59102,3.977276 0.50261,1.011472 0.74658,1.901471 0.8328,3.037975 0.0352,0.464135 0.10529,0.920256 0.15574,1.013602 0.25778,0.476991 0.87848,0.676815 1.34806,0.433983 0.42985,-0.22228 0.56301,-0.631816 0.49611,-1.525691 -0.18573,-2.481452 -1.14597,-4.615329 -2.86057,-6.356862 -0.85009,-0.863449 -2.28363,-1.846255 -3.26443,-2.238038 -0.0979,-0.03913 -0.0693,-0.09409 0.12658,-0.242988 2.10384,-1.599083 3.20936,-4.11589 2.90983,-6.624495 -0.2204,-1.845944 -0.95002,-3.29798 -2.27233,-4.522243 -1.47135,-1.3622405 -3.22672,-1.9970627 -5.23475,-1.8931225 -0.5348,0.027683 -1.20022,0.1124139 -1.4787,0.1882919 -2.63206,0.7171592 -4.65919,2.8258746 -5.24236,5.4533226 -0.22242,1.002113 -0.18757,2.383275 0.0858,3.401253 0.42229,1.572372 1.44507,3.076261 2.70913,3.98347 0.13916,0.09987 0.23409,0.196552 0.21097,0.214847 -0.0231,0.01829 -0.37378,0.198987 -0.77924,0.40154 -1.88809,0.943218 -3.57771,2.672853 -4.49069,4.597037 -0.54013,1.138362 -0.83879,2.295099 -0.9393,3.637987 -0.0478,0.638464 -0.0326,0.81786 0.0914,1.079067 0.27319,0.575714 0.99049,0.74541 1.46458,0.346488 z m 7.88108,-10.934711 c -1.96501,-0.32743 -3.53311,-1.707823 -4.20755,-3.703876 -0.19573,-0.579296 -0.21944,-2.189495 -0.0416,-2.827005 0.21847,-0.783275 0.76645,-1.719736 1.35629,-2.317825 1.77604,-1.800882 4.51686,-2.07866 6.62138,-0.671065 1.55986,1.043292 2.41058,2.747757 2.30405,4.616252 -0.14444,2.533502 -1.99419,4.547128 -4.51144,4.911126 -0.66055,0.09551 -0.90972,0.09427 -1.52111,-0.0076 z"
       id="path1" />
  </g>
</svg>
