<?xml version="1.0" encoding="UTF-8" standalone="no"?>
<!-- Created with Inkscape (http://www.inkscape.org/) -->

<svg
   version="1.1"
   id="svg1"
   width="29.999994"
   height="40.264854"
   viewBox="0 0 29.999995 40.264856"
   sodipodi:docname="istockphoto-1471463478-170667a.jpg"
   xmlns:inkscape="http://www.inkscape.org/namespaces/inkscape"
   xmlns:sodipodi="http://sodipodi.sourceforge.net/DTD/sodipodi-0.dtd"
   xmlns="http://www.w3.org/2000/svg"
   xmlns:svg="http://www.w3.org/2000/svg">
  <defs
     id="defs1" />
  <sodipodi:namedview
     id="namedview1"
     pagecolor="#ffffff"
     bordercolor="#000000"
     borderopacity="0.25"
     inkscape:showpageshadow="2"
     inkscape:pageopacity="0.0"
     inkscape:pagecheckerboard="0"
     inkscape:deskcolor="#d1d1d1" />
  <g
     inkscape:groupmode="layer"
     inkscape:label="Image"
     id="g1"
     transform="translate(-44.649218,62.612402)">
    <path
       style="fill:#000000;stroke-width:0.422279"
       d="m 45.517399,-22.601343 c -0.923566,-0.563189 -0.867525,0.579181 -0.867525,-17.684032 v -16.479141 l 0.306734,-0.459154 c 0.55273,-0.827385 0.953112,-0.931658 3.578231,-0.931895 l 2.330979,-2.1e-4 v 0.413114 c 0,1.204679 0.649223,2.333943 1.629238,2.833909 0.498509,0.254321 0.821285,0.266337 7.154161,0.266337 6.332876,0 6.655652,-0.01202 7.154161,-0.266337 0.980014,-0.499966 1.629238,-1.62923 1.629238,-2.833909 v -0.413114 l 2.330979,2.1e-4 c 2.625119,2.37e-4 3.025502,0.10451 3.578231,0.931895 l 0.306735,0.459154 v 16.479141 c 0,18.263213 0.05604,17.120843 -0.867525,17.684032 -0.399991,0.243913 -0.950499,0.253798 -14.131819,0.253798 -13.18132,0 -13.731829,-0.0099 -14.131818,-0.253798 z m 23.244386,-5.319268 c 1.160253,-1.133398 2.108113,-2.167137 2.106354,-2.297199 -0.0041,-0.301042 -0.474598,-0.776992 -0.76814,-0.776992 -0.123435,0 -0.971603,0.738674 -1.884819,1.641498 l -1.660392,1.641501 -0.76893,-0.702761 c -0.631493,-0.577148 -0.843644,-0.69544 -1.186932,-0.661812 -0.321958,0.03154 -0.44941,0.130791 -0.554701,0.431966 -0.131667,0.376626 -0.08948,0.435015 1.146159,1.586193 0.705572,0.657345 1.323131,1.195881 1.372353,1.196747 0.04922,8.44e-4 1.038794,-0.925745 2.199048,-2.059141 z m -8.41378,-0.05473 c 0.307315,-0.278117 0.316871,-0.691473 0.02348,-1.015668 -0.209787,-0.231811 -0.569653,-0.247116 -5.810557,-0.247116 -5.406746,0 -5.595634,0.0087 -5.857177,0.270258 -0.148642,0.148643 -0.270258,0.361471 -0.270258,0.472953 0,0.111481 0.121616,0.324312 0.270258,0.472954 0.261506,0.261504 0.450431,0.270258 5.833698,0.270258 4.98721,0 5.589035,-0.02318 5.810556,-0.223639 z m 10.43417,-9.240856 c 0.158218,-0.337124 -0.230731,-0.940456 -0.606282,-0.940456 -0.167809,0 -0.914701,0.600684 -1.890225,1.520204 -0.887036,0.836112 -1.668351,1.538953 -1.736257,1.561868 -0.0679,0.02292 -0.463113,-0.265923 -0.87824,-0.641863 -0.822442,-0.744808 -0.948665,-0.787545 -1.397494,-0.473173 -0.568451,0.398158 -0.390628,0.758531 0.991374,2.009097 l 1.2917,1.168853 2.052749,-1.974498 c 1.129011,-1.085974 2.106715,-2.089488 2.172675,-2.230032 z m -10.349209,2.005361 c 0.256944,-0.256944 0.197013,-0.890715 -0.09922,-1.049254 -0.168131,-0.08998 -2.26239,-0.139883 -5.870459,-0.139883 h -5.609084 l -0.210356,0.300325 c -0.265648,0.379266 -0.265192,0.571439 0.002,0.838621 0.186337,0.186337 0.911274,0.212346 5.918659,0.212346 4.258072,0 5.747468,-0.04115 5.868469,-0.162155 z m 10.431976,-9.419795 c 0,-0.106501 -0.100637,-0.30484 -0.223637,-0.440754 -0.450936,-0.498278 -0.788319,-0.318196 -2.478136,1.322728 l -1.616618,1.569844 -0.798214,-0.691504 c -0.868096,-0.752045 -1.194689,-0.838492 -1.575995,-0.417154 -0.377885,0.417559 -0.156271,0.782672 1.219866,2.009744 l 1.216163,1.084427 2.128286,-2.121847 c 1.170556,-1.167015 2.128285,-2.208984 2.128285,-2.315484 z m -10.482167,2.207755 c 0.252023,-0.252022 0.27758,-0.749402 0.05019,-0.97679 -0.121072,-0.121072 -1.6282,-0.162155 -5.948582,-0.162155 h -5.786427 l -0.151401,0.332287 c -0.121241,0.266095 -0.106584,0.400685 0.07358,0.675646 l 0.224977,0.343359 h 5.66266 c 4.9677,0 5.68872,-0.02606 5.875005,-0.212347 z m 8.364428,-7.118413 c 1.176434,-1.140648 2.123668,-2.166303 2.121555,-2.297197 -0.0049,-0.301315 -0.475501,-0.776993 -0.768759,-0.776993 -0.123435,0 -0.972791,0.73985 -1.88746,1.64411 l -1.663034,1.64411 -0.654584,-0.612287 c -0.360022,-0.336758 -0.772434,-0.674169 -0.916472,-0.749803 -0.380112,-0.199594 -0.845992,0.0258 -0.955544,0.462287 -0.08546,0.340489 0.01776,0.476986 1.178338,1.558259 0.699599,0.651795 1.305432,1.185791 1.346294,1.186658 0.04086,8.87e-4 1.030712,-0.925748 2.199666,-2.059144 z m -8.452407,-0.04145 c 0.355628,-0.249092 0.388105,-0.684838 0.07669,-1.028949 -0.209786,-0.231812 -0.569653,-0.247116 -5.810556,-0.247116 -5.406747,0 -5.595635,0.0087 -5.857177,0.270258 -0.148643,0.148642 -0.270259,0.361471 -0.270259,0.472952 0,0.111482 0.121616,0.32431 0.270259,0.472952 0.261421,0.261422 0.45043,0.270259 5.780489,0.270259 4.768486,0 5.550658,-0.02832 5.810556,-0.210356 z m -7.590667,-6.041586 c -0.814474,-0.466945 -1.027536,-1.001216 -1.027536,-2.576637 v -1.333131 l 0.459439,-0.459439 0.45944,-0.45944 h 1.96378 c 1.865924,0 1.968195,-0.01391 2.052375,-0.279137 0.304775,-0.960259 1.791076,-1.88029 3.03759,-1.88029 1.246514,0 2.732815,0.920031 3.037589,1.88029 0.08418,0.265228 0.186452,0.279137 2.052375,0.279137 h 1.963781 l 0.459439,0.45944 0.45944,0.459439 v 1.333131 c 0,1.575421 -0.213062,2.109692 -1.027537,2.576637 -0.524522,0.300713 -0.549949,0.301818 -6.945087,0.301818 -6.395138,0 -6.420565,-0.0011 -6.945088,-0.301818 z m 7.745495,-2.746156 c 0.870357,-0.732357 0.351432,-2.082491 -0.800407,-2.082491 -1.151839,0 -1.670764,1.350134 -0.800408,2.082491 0.234191,0.197058 0.583738,0.349835 0.800408,0.349835 0.21667,0 0.566217,-0.152777 0.800407,-0.349835 z"
       id="path1"
       inkscape:export-filename="..\React\merg\admin\src\assets\order_icon.svg"
       inkscape:export-xdpi="96"
       inkscape:export-ydpi="96" />
  </g>
</svg>
