<?xml version="1.0" encoding="UTF-8" standalone="no"?>
<!-- Created with Inkscape (http://www.inkscape.org/) -->

<svg
   version="1.1"
   id="svg1"
   width="40"
   height="40.018692"
   viewBox="0 0 40 40.018692"
   sodipodi:docname="refresh-icon.png"
   xmlns:inkscape="http://www.inkscape.org/namespaces/inkscape"
   xmlns:sodipodi="http://sodipodi.sourceforge.net/DTD/sodipodi-0.dtd"
   xmlns="http://www.w3.org/2000/svg"
   xmlns:svg="http://www.w3.org/2000/svg">
  <defs
     id="defs1" />
  <sodipodi:namedview
     id="namedview1"
     pagecolor="#ffffff"
     bordercolor="#000000"
     borderopacity="0.25"
     inkscape:showpageshadow="2"
     inkscape:pageopacity="0.0"
     inkscape:pagecheckerboard="0"
     inkscape:deskcolor="#d1d1d1" />
  <g
     inkscape:groupmode="layer"
     inkscape:label="Image"
     id="g1"
     transform="translate(-936.70215,35.033657)">
    <path
       style="fill:#000000;stroke-width:0.0479758"
       d="m 955.52636,4.972149 c -0.14513,-0.010409 -0.65247,-0.062011 -1.12743,-0.1146713 -6.68942,-0.7416764 -12.61358,-4.90672645 -15.64042,-10.9961835 -1.03464,-2.0815057 -1.66029,-4.1979612 -1.95411,-6.6103892 -0.0834,-0.684982 -0.10225,-1.104597 -0.10225,-2.278851 0,-1.572483 0.0787,-2.470108 0.33019,-3.766102 1.08825,-5.607931 4.44829,-10.426385 9.33714,-13.389909 2.41781,-1.465629 5.11676,-2.38426 8.05343,-2.741117 1.12173,-0.13631 3.29789,-0.145931 4.41255,-0.01951 4.30882,0.488694 8.15398,2.219906 11.33867,5.105026 2.90662,2.633205 5.02713,6.179509 5.9583,9.964564 0.42745,1.737535 0.56972,2.947884 0.56972,4.847047 0,1.899162 -0.14227,3.109512 -0.56972,4.847047 -1.03496,4.2069072 -3.5158,8.0707372 -6.92756,10.78940257 -3.01236,2.40040583 -6.53845,3.85783783 -10.34419,4.27553403 -0.64518,0.070811 -2.78656,0.1273983 -3.33432,0.088111 z m 2.63867,-5.15477005 c 2.28154,-0.21810143 4.53746,-1.01825795 6.50359,-2.30677285 0.66337,-0.4347377 0.85595,-0.6181761 1.06468,-1.014133 0.12066,-0.2288864 0.13185,-0.2948685 0.13185,-0.7778358 0,-0.5098808 -0.006,-0.5379793 -0.16421,-0.8305857 -0.30077,-0.5547243 -0.81912,-0.8963135 -1.44993,-0.9555071 -0.35546,-0.033355 -0.84242,0.1129855 -1.19388,0.3587867 -1.46467,1.0243437 -3.26059,1.7099671 -5.05921,1.9314384 -0.23703,0.029187 -0.83073,0.053396 -1.31933,0.053798 -2.89233,0.00238 -5.55668,-1.0748944 -7.66858,-3.1006446 -2.08789,-2.0027165 -3.31883,-4.704549 -3.49174,-7.664141 l -0.0329,-0.563716 h 1.37344 1.37344 l 0.0288,-0.114655 c 0.0231,-0.09223 -0.13739,-0.366666 -0.82092,-1.403292 -0.46734,-0.708751 -1.46284,-2.220311 -2.21223,-3.359021 -0.74939,-1.138711 -1.39425,-2.082557 -1.43302,-2.097436 -0.10588,-0.04063 -0.17947,0.003 -0.29435,0.174583 -0.12217,0.182435 -1.72484,2.615796 -3.2293,4.903084 -0.58382,0.8876 -1.07359,1.645367 -1.08839,1.683925 -0.0148,0.03856 -2.4e-4,0.102215 0.0323,0.141459 0.0498,0.06003 0.27144,0.07135 1.39666,0.07135 1.03786,0 1.3375,0.01343 1.33767,0.05997 0,0.03298 0.0227,0.41619 0.0501,0.85157 0.056,0.888798 0.13267,1.456112 0.3109,2.300241 0.93555,4.4310363 4.02999,8.3583061 8.11397,10.2977498 2.37063,1.12579093 5.12565,1.60975852 7.74065,1.35978195 z m 12.73758,-9.54519315 c 0.60689,-0.9232398 1.60539,-2.4393848 2.21888,-3.3692128 0.61349,-0.929827 1.11511,-1.712285 1.1147,-1.738794 -0.003,-0.184673 -0.0516,-0.191704 -1.43034,-0.206225 l -1.33874,-0.0141 -0.0321,-0.56161 c -0.0508,-0.887383 -0.12328,-1.520318 -0.25122,-2.192788 -0.56611,-2.975492 -1.9919,-5.68098 -4.11962,-7.817179 -3.43137,-3.445036 -8.24325,-4.936293 -13.09701,-4.05891 -1.74066,0.314648 -3.66362,1.091125 -5.20537,2.101884 -0.68931,0.451906 -0.88122,0.633411 -1.09154,1.032383 -0.11956,0.226796 -0.13185,0.297046 -0.13185,0.753848 0,0.444757 0.0148,0.534646 0.12596,0.767613 0.17537,0.367398 0.41832,0.628858 0.74596,0.80279 0.37542,0.199303 0.7672,0.268511 1.13868,0.201149 0.34237,-0.06208 0.50029,-0.139057 1.1248,-0.548237 0.57237,-0.375026 1.5368,-0.861228 2.18756,-1.102837 0.61265,-0.227455 1.57319,-0.468715 2.3052,-0.579001 0.76963,-0.115953 2.33061,-0.117443 3.04363,-0.0029 2.49331,0.400523 4.51115,1.391221 6.20904,3.048427 2.11304,2.062413 3.27975,4.628044 3.46512,7.619854 l 0.0334,0.539728 h -1.30532 c -0.80806,0 -1.34069,0.01892 -1.39813,0.04966 -0.19093,0.102182 -0.29199,-0.07127 1.84988,3.174982 0.34321,0.520186 1.04365,1.58345 1.55652,2.3628087 0.82225,1.2495014 0.94703,1.4169131 1.05547,1.4161493 0.10834,-7.628e-4 0.25427,-0.2006095 1.22642,-1.6794838 z"
       id="path1"
       inkscape:export-filename="refresh_icon.png"
       inkscape:export-xdpi="96"
       inkscape:export-ydpi="96" />
  </g>
</svg>
